<svg xmlns="http://www.w3.org/2000/svg" xmlns:xlink="http://www.w3.org/1999/xlink" width="1080" zoomAndPan="magnify" viewBox="0 0 810 809.999993" height="1080" preserveAspectRatio="xMidYMid meet" version="1.0"><defs><clipPath id="a7050f2a6f"><path d="M 364 0 L 761.101562 0 L 761.101562 398 L 364 398 Z M 364 0 " clip-rule="nonzero"/></clipPath><clipPath id="6c3b59f4fc"><path d="M 48.601562 396 L 309 396 L 309 658 L 48.601562 658 Z M 48.601562 396 " clip-rule="nonzero"/></clipPath><clipPath id="bc4c265d41"><path d="M 516 243 L 531 243 L 531 256.34375 L 516 256.34375 Z M 516 243 " clip-rule="nonzero"/></clipPath><clipPath id="132b48b97c"><path d="M 497.011719 176 L 504 176 L 504 224 L 497.011719 224 Z M 497.011719 176 " clip-rule="nonzero"/></clipPath><clipPath id="151d33b1e1"><path d="M 616 190 L 620.761719 190 L 620.761719 215 L 616 215 Z M 616 190 " clip-rule="nonzero"/></clipPath><clipPath id="48227e9fe4"><path d="M 587 243 L 601 243 L 601 256.34375 L 587 256.34375 Z M 587 243 " clip-rule="nonzero"/></clipPath><clipPath id="2486673c2f"><path d="M 508 134.84375 L 620.761719 134.84375 L 620.761719 256.34375 L 508 256.34375 Z M 508 134.84375 " clip-rule="nonzero"/></clipPath><clipPath id="190a06f852"><path d="M 193 482.96875 L 211 482.96875 L 211 513 L 193 513 Z M 193 482.96875 " clip-rule="nonzero"/></clipPath><clipPath id="4f7b4c2912"><path d="M 148 482.96875 L 167 482.96875 L 167 513 L 148 513 Z M 148 482.96875 " clip-rule="nonzero"/></clipPath><clipPath id="72b31fbf9f"><path d="M 186 544 L 195 544 L 195 557.96875 L 186 557.96875 Z M 186 544 " clip-rule="nonzero"/></clipPath><clipPath id="1aa9596d5f"><path d="M 165 544 L 174 544 L 174 557.96875 L 165 557.96875 Z M 165 544 " clip-rule="nonzero"/></clipPath><clipPath id="0a58f2e5f2"><path d="M 201 503 L 221.449219 503 L 221.449219 557.96875 L 201 557.96875 Z M 201 503 " clip-rule="nonzero"/></clipPath><clipPath id="e9797e057a"><path d="M 138.199219 503 L 159 503 L 159 557.96875 L 138.199219 557.96875 Z M 138.199219 503 " clip-rule="nonzero"/></clipPath><clipPath id="996bbfd6d8"><path d="M 603 682.640625 L 611 682.640625 L 611 690 L 603 690 Z M 603 682.640625 " clip-rule="nonzero"/></clipPath><clipPath id="2a20764c6a"><path d="M 583.679688 696 L 630.179688 696 L 630.179688 729 L 583.679688 729 Z M 583.679688 696 " clip-rule="nonzero"/></clipPath></defs><rect x="-81" width="972" fill="#ffffff" y="-80.999999" height="971.999992" fill-opacity="1"/><rect x="-81" width="972" fill="#f1f1f1" y="-80.999999" height="971.999992" fill-opacity="1"/><g clip-path="url(#a7050f2a6f)"><path fill="#ff0000" d="M 532.675781 0.210938 L 592.824219 0.210938 C 603.796875 0.210938 613.757812 4.6875 620.976562 11.90625 L 621.449219 12.445312 C 628.417969 19.632812 632.707031 29.371094 632.707031 40.089844 L 632.707031 128.898438 L 721.511719 128.898438 C 732.484375 128.898438 742.445312 133.375 749.664062 140.59375 C 756.917969 147.847656 761.394531 157.808594 761.394531 168.777344 L 761.394531 228.898438 C 761.394531 239.871094 756.917969 249.863281 749.664062 257.082031 L 749.160156 257.554688 C 741.972656 264.492188 732.230469 268.777344 721.511719 268.777344 L 632.707031 268.777344 L 632.707031 357.617188 C 632.707031 368.554688 628.199219 378.519531 620.976562 385.738281 L 620.945312 385.769531 C 613.726562 392.988281 603.765625 397.464844 592.824219 397.464844 L 532.675781 397.464844 C 521.734375 397.464844 511.773438 392.988281 504.523438 385.738281 L 504.523438 385.769531 C 497.304688 378.550781 492.828125 368.589844 492.828125 357.617188 L 492.828125 268.777344 L 403.988281 268.777344 C 393.046875 268.777344 383.085938 264.300781 375.867188 257.082031 L 375.835938 257.082031 C 368.617188 249.863281 364.140625 239.871094 364.140625 228.898438 L 364.140625 168.777344 C 364.140625 157.808594 368.617188 147.847656 375.835938 140.59375 C 383.054688 133.375 393.015625 128.898438 403.988281 128.898438 L 492.828125 128.898438 L 492.828125 40.089844 C 492.828125 29.121094 497.304688 19.128906 504.523438 11.90625 L 505.058594 11.433594 C 512.246094 4.5 521.988281 0.210938 532.675781 0.210938 Z M 592.824219 17.425781 L 532.675781 17.425781 C 526.621094 17.425781 521.105469 19.820312 517.039062 23.699219 L 516.691406 24.078125 C 512.5625 28.175781 510.007812 33.847656 510.007812 40.089844 L 510.007812 137.503906 C 510.007812 142.265625 506.160156 146.113281 501.402344 146.113281 L 403.988281 146.113281 C 397.777344 146.113281 392.101562 148.664062 388.003906 152.765625 C 383.875 156.894531 381.320312 162.535156 381.320312 168.777344 L 381.320312 228.898438 C 381.320312 235.140625 383.875 240.816406 388.003906 244.914062 L 387.972656 244.945312 C 392.070312 249.042969 397.746094 251.566406 403.988281 251.566406 L 501.402344 251.566406 C 506.160156 251.566406 510.007812 255.441406 510.007812 260.171875 L 510.007812 357.617188 C 510.007812 363.828125 512.5625 369.503906 516.691406 373.601562 L 516.691406 373.632812 C 520.757812 377.730469 526.433594 380.285156 532.675781 380.285156 L 592.824219 380.285156 C 599.066406 380.285156 604.742188 377.730469 608.839844 373.632812 C 612.9375 369.503906 615.492188 363.828125 615.492188 357.617188 L 615.492188 260.171875 C 615.492188 255.441406 619.339844 251.566406 624.097656 251.566406 L 721.511719 251.566406 C 727.566406 251.566406 733.082031 249.167969 737.179688 245.292969 L 737.527344 244.914062 C 741.625 240.816406 744.179688 235.140625 744.179688 228.898438 L 744.179688 168.777344 C 744.179688 162.535156 741.625 156.894531 737.527344 152.765625 C 733.398438 148.664062 727.753906 146.113281 721.511719 146.113281 L 624.097656 146.113281 C 619.339844 146.113281 615.492188 142.265625 615.492188 137.503906 L 615.492188 40.089844 C 615.492188 34.039062 613.097656 28.523438 609.1875 24.421875 L 608.808594 24.078125 C 604.710938 19.976562 599.035156 17.425781 592.824219 17.425781 Z M 592.824219 17.425781 " fill-opacity="1" fill-rule="nonzero"/></g><g clip-path="url(#6c3b59f4fc)"><path fill="#ff0000" d="M 159.476562 396.898438 L 197.90625 396.898438 C 205.785156 396.898438 212.941406 400.113281 218.113281 405.285156 C 223.28125 410.453125 226.5 417.609375 226.5 425.460938 L 226.5 479.148438 L 280.1875 479.148438 C 288.066406 479.148438 295.222656 482.363281 300.394531 487.566406 C 305.566406 492.734375 308.78125 499.890625 308.78125 507.742188 L 308.78125 546.203125 C 308.78125 554.085938 305.566406 561.210938 300.394531 566.410156 C 295.222656 571.582031 288.066406 574.796875 280.1875 574.796875 L 226.5 574.796875 L 226.5 628.484375 C 226.5 636.335938 223.28125 643.492188 218.113281 648.660156 C 212.941406 653.863281 205.785156 657.078125 197.90625 657.078125 L 159.476562 657.078125 C 151.59375 657.078125 144.4375 653.863281 139.265625 648.660156 C 134.097656 643.492188 130.882812 636.335938 130.882812 628.484375 L 130.882812 574.796875 L 77.195312 574.796875 C 69.3125 574.796875 62.15625 571.582031 56.984375 566.410156 C 51.816406 561.210938 48.601562 554.085938 48.601562 546.203125 L 48.601562 507.742188 C 48.601562 499.890625 51.816406 492.734375 56.984375 487.566406 C 62.15625 482.363281 69.3125 479.148438 77.195312 479.148438 L 130.882812 479.148438 L 130.882812 425.460938 C 130.882812 417.609375 134.097656 410.453125 139.265625 405.285156 C 144.4375 400.113281 151.59375 396.898438 159.476562 396.898438 Z M 197.90625 414.078125 L 159.476562 414.078125 C 156.355469 414.078125 153.484375 415.371094 151.4375 417.453125 C 149.355469 419.5 148.09375 422.339844 148.09375 425.460938 L 148.09375 487.753906 C 148.09375 492.515625 144.21875 496.359375 139.488281 496.359375 L 77.195312 496.359375 C 74.074219 496.359375 71.203125 497.652344 69.15625 499.703125 C 67.105469 501.785156 65.8125 504.621094 65.8125 507.742188 L 65.8125 546.203125 C 65.8125 549.324219 67.105469 552.160156 69.15625 554.242188 C 71.234375 556.292969 74.074219 557.582031 77.195312 557.582031 L 139.488281 557.582031 C 144.21875 557.582031 148.09375 561.429688 148.09375 566.191406 L 148.09375 628.484375 C 148.09375 631.605469 149.355469 634.441406 151.4375 636.523438 C 153.484375 638.574219 156.355469 639.867188 159.476562 639.867188 L 197.90625 639.867188 C 201.027344 639.867188 203.894531 638.574219 205.945312 636.523438 C 208.023438 634.441406 209.316406 631.605469 209.316406 628.484375 L 209.316406 566.191406 C 209.316406 561.429688 213.164062 557.582031 217.890625 557.582031 L 280.1875 557.582031 C 283.308594 557.582031 286.175781 556.292969 288.226562 554.242188 C 290.304688 552.160156 291.566406 549.324219 291.566406 546.203125 L 291.566406 507.742188 C 291.566406 504.621094 290.304688 501.785156 288.226562 499.703125 C 286.175781 497.652344 283.308594 496.359375 280.1875 496.359375 L 217.890625 496.359375 C 213.164062 496.359375 209.316406 492.515625 209.316406 487.753906 L 209.316406 425.460938 C 209.316406 422.339844 208.023438 419.5 205.945312 417.453125 C 203.894531 415.371094 201.027344 414.078125 197.90625 414.078125 Z M 197.90625 414.078125 " fill-opacity="1" fill-rule="nonzero"/></g><path fill="#ff0000" d="M 591.597656 611.617188 L 620.222656 611.617188 C 626.652344 611.617188 632.515625 614.265625 636.773438 618.523438 L 636.804688 618.492188 C 641.058594 622.746094 643.707031 628.640625 643.707031 635.105469 L 643.707031 672.871094 L 681.445312 672.871094 C 687.90625 672.871094 693.800781 675.488281 698.058594 679.746094 L 698.5625 680.3125 C 702.503906 684.539062 704.929688 690.179688 704.929688 696.359375 L 704.929688 724.953125 C 704.929688 731.414062 702.3125 737.3125 698.058594 741.566406 C 693.800781 745.792969 687.9375 748.4375 681.445312 748.4375 L 643.707031 748.4375 L 643.707031 786.207031 C 643.707031 792.667969 641.058594 798.566406 636.804688 802.789062 C 632.546875 807.046875 626.683594 809.695312 620.222656 809.695312 L 591.597656 809.695312 C 585.132812 809.695312 579.238281 807.046875 575.015625 802.789062 L 574.476562 802.222656 C 570.539062 798.027344 568.109375 792.386719 568.109375 786.207031 L 568.109375 748.4375 L 530.34375 748.4375 C 523.878906 748.4375 518.015625 745.792969 513.757812 741.566406 L 513.222656 740.96875 C 509.28125 736.742188 506.855469 731.101562 506.855469 724.953125 L 506.855469 696.359375 C 506.855469 689.863281 509.503906 684 513.757812 679.746094 C 518.015625 675.488281 523.878906 672.871094 530.34375 672.871094 L 568.109375 672.871094 L 568.109375 635.105469 C 568.109375 628.640625 570.757812 622.777344 575.015625 618.523438 L 575.046875 618.492188 C 579.269531 614.265625 585.132812 611.617188 591.597656 611.617188 Z M 620.222656 628.800781 L 591.597656 628.800781 C 589.863281 628.800781 588.285156 629.523438 587.152344 630.628906 L 587.121094 630.660156 C 586.015625 631.792969 585.324219 633.371094 585.324219 635.105469 L 585.324219 681.449219 C 585.324219 686.207031 581.445312 690.054688 576.714844 690.054688 L 530.34375 690.054688 C 528.609375 690.054688 527.0625 690.777344 525.898438 691.914062 C 524.761719 693.050781 524.070312 694.625 524.070312 696.359375 L 524.070312 724.953125 C 524.070312 726.5625 524.667969 728.011719 525.613281 729.113281 L 525.929688 729.398438 C 527.0625 730.53125 528.609375 731.257812 530.34375 731.257812 L 576.714844 731.257812 C 581.445312 731.257812 585.324219 735.105469 585.324219 739.832031 L 585.324219 786.207031 C 585.324219 787.816406 585.890625 789.265625 586.867188 790.367188 L 587.152344 790.652344 C 588.285156 791.789062 589.863281 792.480469 591.597656 792.480469 L 620.222656 792.480469 C 621.925781 792.480469 623.5 791.789062 624.636719 790.652344 C 625.769531 789.484375 626.496094 787.941406 626.496094 786.207031 L 626.496094 739.832031 C 626.496094 735.105469 630.339844 731.257812 635.101562 731.257812 L 681.445312 731.257812 C 683.179688 731.257812 684.753906 730.53125 685.890625 729.398438 C 687.023438 728.261719 687.75 726.6875 687.75 724.953125 L 687.75 696.359375 C 687.75 694.75 687.148438 693.300781 686.171875 692.199219 L 685.890625 691.914062 C 684.753906 690.777344 683.179688 690.054688 681.445312 690.054688 L 635.101562 690.054688 C 630.339844 690.054688 626.496094 686.207031 626.496094 681.449219 L 626.496094 635.105469 C 626.496094 633.371094 625.769531 631.792969 624.636719 630.660156 L 624.636719 630.628906 C 623.53125 629.523438 621.957031 628.800781 620.222656 628.800781 Z M 620.222656 628.800781 " fill-opacity="1" fill-rule="nonzero"/><g clip-path="url(#bc4c265d41)"><path fill="#544541" d="M 530.148438 249.765625 C 530.148438 250.199219 530.105469 250.632812 530.019531 251.058594 C 529.9375 251.484375 529.808594 251.898438 529.644531 252.300781 C 529.476562 252.703125 529.273438 253.085938 529.03125 253.449219 C 528.789062 253.808594 528.515625 254.144531 528.207031 254.453125 C 527.898438 254.757812 527.566406 255.035156 527.203125 255.277344 C 526.839844 255.515625 526.460938 255.722656 526.058594 255.886719 C 525.65625 256.054688 525.242188 256.179688 524.8125 256.265625 C 524.386719 256.351562 523.957031 256.394531 523.519531 256.394531 C 523.085938 256.394531 522.65625 256.351562 522.226562 256.265625 C 521.800781 256.179688 521.386719 256.054688 520.984375 255.886719 C 520.582031 255.722656 520.199219 255.515625 519.839844 255.277344 C 519.476562 255.035156 519.144531 254.757812 518.835938 254.453125 C 518.527344 254.144531 518.253906 253.808594 518.011719 253.449219 C 517.769531 253.085938 517.566406 252.703125 517.398438 252.300781 C 517.230469 251.898438 517.105469 251.484375 517.019531 251.058594 C 516.9375 250.632812 516.894531 250.199219 516.894531 249.765625 C 516.894531 249.332031 516.9375 248.898438 517.019531 248.472656 C 517.105469 248.046875 517.230469 247.632812 517.398438 247.230469 C 517.566406 246.828125 517.769531 246.445312 518.011719 246.082031 C 518.253906 245.722656 518.527344 245.386719 518.835938 245.078125 C 519.144531 244.773438 519.476562 244.496094 519.839844 244.253906 C 520.199219 244.015625 520.582031 243.808594 520.984375 243.644531 C 521.386719 243.476562 521.800781 243.351562 522.226562 243.265625 C 522.65625 243.179688 523.085938 243.140625 523.519531 243.140625 C 523.957031 243.140625 524.386719 243.179688 524.8125 243.265625 C 525.242188 243.351562 525.65625 243.476562 526.058594 243.644531 C 526.460938 243.808594 526.839844 244.015625 527.203125 244.253906 C 527.566406 244.496094 527.898438 244.773438 528.207031 245.078125 C 528.515625 245.386719 528.789062 245.722656 529.03125 246.082031 C 529.273438 246.445312 529.476562 246.828125 529.644531 247.230469 C 529.808594 247.632812 529.9375 248.046875 530.019531 248.472656 C 530.105469 248.898438 530.148438 249.332031 530.148438 249.765625 Z M 530.148438 249.765625 " fill-opacity="1" fill-rule="nonzero"/></g><path fill="#544541" d="M 567.699219 161.40625 L 567.699219 152.570312 L 558.863281 152.570312 L 558.863281 161.40625 C 558.863281 163.84375 560.847656 165.824219 563.28125 165.824219 C 565.71875 165.824219 567.699219 163.84375 567.699219 161.40625 Z M 567.699219 161.40625 " fill-opacity="1" fill-rule="nonzero"/><g clip-path="url(#132b48b97c)"><path fill="#544541" d="M 500.328125 176.867188 C 498.5 176.867188 497.011719 178.355469 497.011719 180.183594 L 497.011719 223.257812 L 503.640625 223.257812 L 503.640625 180.183594 C 503.640625 178.355469 502.152344 176.867188 500.328125 176.867188 Z M 500.328125 176.867188 " fill-opacity="1" fill-rule="nonzero"/></g><path fill="#544541" d="M 519.101562 203.378906 L 530.148438 203.378906 L 530.148438 194.542969 L 519.101562 194.542969 C 516.667969 194.542969 514.683594 196.523438 514.683594 198.960938 C 514.683594 201.394531 516.667969 203.378906 519.101562 203.378906 Z M 519.101562 203.378906 " fill-opacity="1" fill-rule="nonzero"/><path fill="#544541" d="M 572.117188 185.707031 L 572.117188 203.378906 L 587.582031 203.378906 L 587.582031 185.707031 L 580.953125 185.707031 L 580.953125 190.125 C 580.953125 191.34375 579.964844 192.332031 578.746094 192.332031 C 577.527344 192.332031 576.535156 191.34375 576.535156 190.125 L 576.535156 185.707031 Z M 572.117188 185.707031 " fill-opacity="1" fill-rule="nonzero"/><path fill="#544541" d="M 603.042969 192.074219 C 603.042969 188.5625 600.1875 185.707031 596.671875 185.707031 L 592 185.707031 L 592 203.378906 L 603.042969 203.378906 Z M 603.042969 192.074219 " fill-opacity="1" fill-rule="nonzero"/><path fill="#544541" d="M 541.191406 198.960938 C 541.191406 196.523438 539.210938 194.542969 536.773438 194.542969 L 534.566406 194.542969 L 534.566406 203.378906 L 536.773438 203.378906 C 539.210938 203.378906 541.191406 201.394531 541.191406 198.960938 Z M 541.191406 198.960938 " fill-opacity="1" fill-rule="nonzero"/><g clip-path="url(#151d33b1e1)"><path fill="#544541" d="M 616.296875 199.449219 L 616.296875 214.421875 L 620.714844 214.421875 L 620.714844 190.136719 C 617.941406 192.40625 616.296875 195.851562 616.296875 199.449219 Z M 616.296875 199.449219 " fill-opacity="1" fill-rule="nonzero"/></g><path fill="#544541" d="M 525.730469 241.210938 L 525.730469 227.675781 L 521.3125 227.675781 L 521.3125 241.210938 C 522.019531 241.027344 522.757812 240.929688 523.519531 240.929688 C 524.285156 240.929688 525.023438 241.027344 525.730469 241.210938 Z M 525.730469 241.210938 " fill-opacity="1" fill-rule="nonzero"/><g clip-path="url(#48227e9fe4)"><path fill="#544541" d="M 600.835938 249.765625 C 600.835938 250.199219 600.792969 250.632812 600.707031 251.058594 C 600.625 251.484375 600.496094 251.898438 600.332031 252.300781 C 600.164062 252.703125 599.960938 253.085938 599.71875 253.449219 C 599.476562 253.808594 599.203125 254.144531 598.894531 254.453125 C 598.585938 254.757812 598.253906 255.035156 597.890625 255.277344 C 597.527344 255.515625 597.148438 255.722656 596.746094 255.886719 C 596.34375 256.054688 595.929688 256.179688 595.5 256.265625 C 595.074219 256.351562 594.644531 256.394531 594.207031 256.394531 C 593.773438 256.394531 593.34375 256.351562 592.914062 256.265625 C 592.488281 256.179688 592.074219 256.054688 591.671875 255.886719 C 591.269531 255.722656 590.886719 255.515625 590.527344 255.277344 C 590.164062 255.035156 589.832031 254.757812 589.523438 254.453125 C 589.214844 254.144531 588.941406 253.808594 588.699219 253.449219 C 588.457031 253.085938 588.253906 252.703125 588.085938 252.300781 C 587.917969 251.898438 587.792969 251.484375 587.707031 251.058594 C 587.625 250.632812 587.582031 250.199219 587.582031 249.765625 C 587.582031 249.332031 587.625 248.898438 587.707031 248.472656 C 587.792969 248.046875 587.917969 247.632812 588.085938 247.230469 C 588.253906 246.828125 588.457031 246.445312 588.699219 246.082031 C 588.941406 245.722656 589.214844 245.386719 589.523438 245.078125 C 589.832031 244.773438 590.164062 244.496094 590.527344 244.253906 C 590.886719 244.015625 591.269531 243.808594 591.671875 243.644531 C 592.074219 243.476562 592.488281 243.351562 592.914062 243.265625 C 593.34375 243.179688 593.773438 243.140625 594.207031 243.140625 C 594.644531 243.140625 595.074219 243.179688 595.5 243.265625 C 595.929688 243.351562 596.34375 243.476562 596.746094 243.644531 C 597.148438 243.808594 597.527344 244.015625 597.890625 244.253906 C 598.253906 244.496094 598.585938 244.773438 598.894531 245.078125 C 599.203125 245.386719 599.476562 245.722656 599.71875 246.082031 C 599.960938 246.445312 600.164062 246.828125 600.332031 247.230469 C 600.496094 247.632812 600.625 248.046875 600.707031 248.472656 C 600.792969 248.898438 600.835938 249.332031 600.835938 249.765625 Z M 600.835938 249.765625 " fill-opacity="1" fill-rule="nonzero"/></g><path fill="#544541" d="M 596.417969 241.210938 L 596.417969 227.675781 L 592 227.675781 L 592 241.210938 C 592.707031 241.027344 593.445312 240.929688 594.207031 240.929688 C 594.972656 240.929688 595.710938 241.027344 596.417969 241.210938 Z M 596.417969 241.210938 " fill-opacity="1" fill-rule="nonzero"/><g clip-path="url(#2486673c2f)"><path fill="#544541" d="M 552.238281 214.421875 L 608.566406 214.421875 C 610.394531 214.421875 611.878906 212.933594 611.878906 211.109375 C 611.878906 209.28125 610.394531 207.796875 608.566406 207.796875 L 552.238281 207.796875 L 552.238281 203.378906 L 567.699219 203.378906 L 567.699219 185.707031 L 552.238281 185.707031 L 552.238281 145.941406 L 569.910156 145.941406 C 571.128906 145.941406 572.117188 144.953125 572.117188 143.734375 L 572.117188 134.898438 L 567.699219 134.898438 L 567.699219 141.523438 L 532.355469 141.523438 L 532.355469 134.898438 L 527.9375 134.898438 L 527.9375 143.734375 C 527.9375 144.953125 528.929688 145.941406 530.148438 145.941406 L 547.820312 145.941406 L 547.820312 185.707031 L 540.9375 185.707031 C 538.105469 185.707031 535.699219 187.5625 534.875 190.125 L 536.773438 190.125 C 541.648438 190.125 545.609375 194.085938 545.609375 198.960938 C 545.609375 200.566406 545.175781 202.074219 544.421875 203.378906 L 547.820312 203.378906 L 547.820312 207.796875 L 511.371094 207.796875 C 509.542969 207.796875 508.058594 209.28125 508.058594 211.109375 C 508.058594 212.933594 509.542969 214.421875 511.371094 214.421875 L 547.820312 214.421875 L 547.820312 218.839844 L 508.058594 218.839844 L 508.058594 223.257812 L 547.820312 223.257812 L 547.820312 245.347656 L 545.609375 245.347656 C 539.519531 245.347656 534.566406 250.300781 534.566406 256.394531 L 538.984375 256.394531 C 538.984375 252.738281 541.957031 249.765625 545.609375 249.765625 L 554.445312 249.765625 C 558.101562 249.765625 561.074219 252.738281 561.074219 256.394531 L 565.492188 256.394531 C 565.492188 250.300781 560.535156 245.347656 554.445312 245.347656 L 552.238281 245.347656 L 552.238281 223.257812 L 620.714844 223.257812 L 620.714844 218.839844 L 552.238281 218.839844 Z M 552.238281 214.421875 " fill-opacity="1" fill-rule="nonzero"/></g><path fill="#544541" d="M 565.492188 170.242188 L 561.074219 170.242188 C 561.074219 173.894531 564.046875 176.867188 567.699219 176.867188 L 574.328125 176.867188 C 575.546875 176.867188 576.535156 177.859375 576.535156 179.078125 L 576.535156 183.496094 L 580.953125 183.496094 L 580.953125 179.078125 C 580.953125 175.425781 577.980469 172.449219 574.328125 172.449219 L 567.699219 172.449219 C 566.484375 172.449219 565.492188 171.460938 565.492188 170.242188 Z M 565.492188 170.242188 " fill-opacity="1" fill-rule="nonzero"/><path fill="#544541" d="M 166.480469 509.875 C 161.125 509.875 158.40625 513.496094 158.40625 520.636719 C 158.40625 532.226562 176.355469 542.699219 179.933594 544.671875 C 183.511719 542.699219 201.460938 532.226562 201.460938 520.636719 C 201.460938 513.496094 198.742188 509.875 193.386719 509.875 C 186.003906 509.875 181.15625 518.511719 181.109375 518.59375 C 180.636719 519.457031 179.230469 519.457031 178.757812 518.59375 C 178.710938 518.511719 173.863281 509.875 166.480469 509.875 Z M 179.933594 547.546875 C 179.722656 547.546875 179.511719 547.492188 179.320312 547.398438 C 178.355469 546.898438 155.71875 535.085938 155.71875 520.636719 C 155.71875 511.960938 159.539062 507.183594 166.480469 507.183594 C 173.15625 507.183594 177.863281 512.535156 179.933594 515.457031 C 182.003906 512.535156 186.714844 507.183594 193.386719 507.183594 C 200.328125 507.183594 204.148438 511.960938 204.148438 520.636719 C 204.148438 535.085938 181.511719 546.898438 180.546875 547.398438 C 180.355469 547.492188 180.144531 547.546875 179.933594 547.546875 " fill-opacity="1" fill-rule="nonzero"/><path fill="#544541" d="M 182.734375 509.875 C 182.152344 509.875 181.609375 509.492188 181.4375 508.902344 C 181.179688 508 180.75 507.058594 180.296875 506.058594 C 179.457031 504.207031 178.589844 502.292969 178.589844 500.230469 C 178.589844 497.101562 180.171875 495.078125 182.625 495.078125 C 184.269531 495.078125 185.4375 496.746094 186.167969 498.003906 C 186.539062 498.644531 186.324219 499.46875 185.683594 499.84375 C 185.042969 500.214844 184.214844 500 183.84375 499.359375 C 183.011719 497.9375 182.550781 497.757812 182.546875 497.757812 C 181.453125 497.765625 181.277344 499.3125 181.277344 500.230469 C 181.277344 501.707031 181.992188 503.28125 182.75 504.945312 C 183.222656 505.992188 183.707031 507.070312 184.023438 508.15625 C 184.234375 508.871094 183.824219 509.613281 183.109375 509.824219 C 182.980469 509.859375 182.855469 509.875 182.734375 509.875 " fill-opacity="1" fill-rule="nonzero"/><path fill="#544541" d="M 177.136719 509.875 C 177.011719 509.875 176.886719 509.859375 176.757812 509.824219 C 176.042969 509.613281 175.636719 508.871094 175.84375 508.15625 C 176.160156 507.070312 176.648438 505.992188 177.117188 504.945312 C 177.875 503.28125 178.589844 501.707031 178.589844 500.230469 C 178.589844 499.3125 178.414062 497.773438 177.25 497.765625 C 177.28125 497.777344 176.816406 498 176.023438 499.359375 C 175.652344 500 174.824219 500.214844 174.183594 499.84375 C 173.542969 499.46875 173.328125 498.644531 173.699219 498.003906 C 174.429688 496.746094 175.597656 495.078125 177.242188 495.078125 C 179.695312 495.078125 181.277344 497.101562 181.277344 500.230469 C 181.277344 502.292969 180.410156 504.207031 179.570312 506.058594 C 179.117188 507.058594 178.6875 508 178.425781 508.902344 C 178.257812 509.492188 177.722656 509.875 177.136719 509.875 " fill-opacity="1" fill-rule="nonzero"/><path fill="#544541" d="M 187.894531 506.621094 C 187.285156 506.621094 186.730469 506.203125 186.585938 505.578125 C 186.238281 504.078125 185.289062 502.171875 184.347656 500.347656 C 184.175781 499.996094 184 499.660156 183.824219 499.324219 C 182.28125 496.359375 181.277344 494.308594 181.277344 492.722656 C 181.277344 489.300781 182.902344 487.003906 185.316406 487.003906 C 186.292969 487.003906 187.308594 487.734375 188.957031 489.167969 C 189.515625 489.660156 189.582031 490.519531 189.09375 491.078125 C 188.605469 491.640625 187.769531 491.703125 187.207031 491.214844 L 187.1875 491.199219 C 186.808594 490.867188 185.695312 489.898438 185.226562 489.699219 C 184.316406 489.804688 183.96875 491.585938 183.96875 492.722656 C 183.96875 493.773438 185.257812 496.253906 186.199219 498.0625 C 186.382812 498.410156 186.566406 498.765625 186.75 499.128906 C 187.757812 501.089844 188.792969 503.167969 189.210938 504.972656 C 189.378906 505.699219 188.925781 506.417969 188.199219 506.585938 C 188.101562 506.605469 187.996094 506.621094 187.894531 506.621094 " fill-opacity="1" fill-rule="nonzero"/><path fill="#544541" d="M 171.777344 490.207031 L 171.792969 490.207031 Z M 171.972656 506.621094 C 171.871094 506.621094 171.765625 506.605469 171.667969 506.585938 C 170.941406 506.417969 170.488281 505.699219 170.65625 504.972656 C 171.074219 503.167969 172.109375 501.089844 173.128906 499.113281 C 173.300781 498.765625 173.480469 498.410156 173.679688 498.046875 C 174.609375 496.253906 175.898438 493.773438 175.898438 492.722656 C 175.898438 491.585938 175.554688 489.804688 174.640625 489.699219 C 174.175781 489.898438 173.058594 490.867188 172.679688 491.199219 L 170.910156 489.167969 C 172.558594 487.734375 173.574219 487.003906 174.550781 487.003906 C 176.964844 487.003906 178.589844 489.300781 178.589844 492.722656 C 178.589844 494.308594 177.585938 496.359375 176.054688 499.300781 C 175.867188 499.660156 175.691406 499.996094 175.523438 500.332031 C 174.578125 502.171875 173.628906 504.078125 173.28125 505.578125 C 173.136719 506.203125 172.582031 506.621094 171.972656 506.621094 " fill-opacity="1" fill-rule="nonzero"/><g clip-path="url(#190a06f852)"><path fill="#544541" d="M 205.496094 512.566406 C 204.929688 512.566406 204.398438 512.203125 204.214844 511.636719 C 202.375 505.929688 199.332031 501.011719 196.882812 497.058594 C 194.78125 493.652344 193.386719 491.402344 193.386719 489.695312 C 193.386719 484.386719 195.925781 482.96875 197.421875 482.96875 C 200.914062 482.96875 206.910156 493.105469 210.777344 502.644531 C 211.0625 503.332031 210.722656 504.117188 210.035156 504.394531 C 209.347656 504.671875 208.566406 504.34375 208.285156 503.652344 C 203.402344 491.617188 198.542969 485.972656 197.332031 485.648438 C 197.15625 485.695312 196.078125 486.484375 196.078125 489.695312 C 196.078125 490.640625 197.648438 493.183594 199.171875 495.640625 C 201.5625 499.5 204.839844 504.792969 206.777344 510.804688 C 207.003906 511.515625 206.613281 512.273438 205.90625 512.503906 C 205.773438 512.546875 205.632812 512.566406 205.496094 512.566406 " fill-opacity="1" fill-rule="nonzero"/></g><g clip-path="url(#4f7b4c2912)"><path fill="#544541" d="M 154.371094 512.566406 C 154.234375 512.566406 154.09375 512.546875 153.957031 512.503906 C 153.253906 512.273438 152.863281 511.515625 153.089844 510.804688 C 155.035156 504.792969 158.304688 499.5 160.695312 495.640625 C 162.21875 493.183594 163.789062 490.640625 163.789062 489.695312 C 163.789062 486.484375 162.710938 485.695312 162.421875 485.660156 C 161.324219 485.972656 156.464844 491.617188 151.582031 503.652344 C 151.304688 504.34375 150.519531 504.671875 149.832031 504.394531 C 149.144531 504.117188 148.8125 503.332031 149.089844 502.644531 C 152.957031 493.105469 158.953125 482.96875 162.445312 482.96875 C 163.941406 482.96875 166.480469 484.386719 166.480469 489.695312 C 166.480469 491.402344 165.085938 493.652344 162.980469 497.058594 C 160.535156 501.011719 157.492188 505.929688 155.652344 511.636719 C 155.46875 512.203125 154.941406 512.566406 154.371094 512.566406 " fill-opacity="1" fill-rule="nonzero"/></g><g clip-path="url(#72b31fbf9f)"><path fill="#544541" d="M 193.386719 558.308594 C 192.644531 558.308594 192.042969 557.703125 192.042969 556.964844 C 192.042969 556.027344 190.671875 553.742188 189.570312 551.90625 C 188.546875 550.195312 187.480469 548.421875 186.765625 546.71875 C 186.476562 546.039062 186.796875 545.25 187.480469 544.960938 C 188.167969 544.671875 188.957031 544.992188 189.246094 545.679688 C 189.886719 547.199219 190.902344 548.890625 191.878906 550.523438 C 193.414062 553.078125 194.734375 555.28125 194.734375 556.964844 C 194.734375 557.703125 194.128906 558.308594 193.386719 558.308594 " fill-opacity="1" fill-rule="nonzero"/></g><g clip-path="url(#1aa9596d5f)"><path fill="#544541" d="M 166.480469 558.308594 C 165.738281 558.308594 165.136719 557.703125 165.136719 556.964844 C 165.136719 555.28125 166.453125 553.078125 167.988281 550.523438 C 168.964844 548.890625 169.980469 547.199219 170.621094 545.679688 C 170.910156 544.992188 171.699219 544.671875 172.382812 544.960938 C 173.070312 545.25 173.390625 546.039062 173.101562 546.71875 C 172.386719 548.421875 171.320312 550.195312 170.296875 551.90625 C 169.195312 553.742188 167.824219 556.027344 167.824219 556.964844 C 167.824219 557.703125 167.222656 558.308594 166.480469 558.308594 " fill-opacity="1" fill-rule="nonzero"/></g><g clip-path="url(#0a58f2e5f2)"><path fill="#544541" d="M 216.257812 558.308594 C 215.648438 558.308594 215.097656 557.894531 214.949219 557.277344 C 214.890625 557.042969 213.566406 551.488281 213.566406 548.890625 C 213.566406 547.824219 214.152344 546.3125 215.035156 544.019531 C 216.59375 539.972656 218.949219 533.867188 218.949219 527.367188 C 218.949219 524.769531 218.265625 522.378906 217.71875 520.460938 C 217.296875 518.984375 216.929688 517.707031 216.929688 516.601562 L 216.9375 516.019531 C 216.972656 508.503906 216.363281 506.421875 216 505.851562 C 213.546875 506.066406 212.222656 509.414062 212.222656 512.566406 C 212.222656 513.910156 212.113281 524.691406 212.113281 524.691406 C 212.105469 524.957031 212.023438 525.222656 211.871094 525.445312 C 209.71875 528.527344 204.148438 537.308594 204.148438 540.820312 C 204.148438 541.558594 203.546875 542.164062 202.804688 542.164062 C 202.0625 542.164062 201.460938 541.558594 201.460938 540.820312 C 201.460938 536.152344 207.914062 526.460938 209.421875 524.25 C 209.441406 522.269531 209.53125 513.753906 209.53125 512.566406 C 209.53125 507.890625 211.84375 503.148438 216.257812 503.148438 C 216.664062 503.148438 217.257812 503.265625 217.808594 503.820312 C 219.136719 505.15625 219.664062 508.699219 219.625 516.035156 L 219.621094 516.601562 C 219.621094 517.328125 219.9375 518.4375 220.304688 519.71875 C 220.898438 521.800781 221.640625 524.390625 221.640625 527.367188 C 221.640625 534.371094 219.175781 540.761719 217.546875 544.984375 C 216.910156 546.625 216.257812 548.324219 216.257812 548.890625 C 216.257812 550.78125 217.203125 555.132812 217.566406 556.648438 C 217.742188 557.371094 217.292969 558.097656 216.574219 558.273438 C 216.46875 558.296875 216.363281 558.308594 216.257812 558.308594 " fill-opacity="1" fill-rule="nonzero"/></g><g clip-path="url(#e9797e057a)"><path fill="#544541" d="M 143.609375 558.308594 C 143.503906 558.308594 143.398438 558.296875 143.292969 558.273438 C 142.574219 558.097656 142.128906 557.371094 142.300781 556.648438 C 142.664062 555.132812 143.609375 550.78125 143.609375 548.890625 C 143.609375 548.324219 142.953125 546.625 142.320312 544.984375 C 140.691406 540.761719 138.226562 534.371094 138.226562 527.367188 C 138.226562 524.390625 138.96875 521.800781 139.5625 519.71875 C 139.929688 518.4375 140.246094 517.328125 140.246094 516.601562 L 140.246094 516.035156 C 140.203125 508.699219 140.730469 505.15625 142.058594 503.820312 C 142.609375 503.265625 143.203125 503.148438 143.609375 503.148438 C 148.023438 503.148438 150.335938 507.890625 150.335938 512.566406 C 150.335938 513.753906 150.421875 522.269531 150.441406 524.25 C 151.953125 526.460938 158.40625 536.152344 158.40625 540.820312 C 158.40625 541.558594 157.804688 542.164062 157.0625 542.164062 C 156.320312 542.164062 155.71875 541.558594 155.71875 540.820312 C 155.71875 537.304688 150.148438 528.527344 147.996094 525.445312 C 147.84375 525.222656 147.761719 524.957031 147.753906 524.691406 C 147.753906 524.691406 147.644531 513.910156 147.644531 512.566406 C 147.644531 509.414062 146.320312 506.066406 143.867188 505.851562 C 143.507812 506.421875 142.894531 508.503906 142.9375 516.019531 L 142.9375 516.601562 C 142.9375 517.707031 142.574219 518.984375 142.148438 520.460938 C 141.601562 522.378906 140.917969 524.769531 140.917969 527.367188 C 140.917969 533.867188 143.273438 539.972656 144.832031 544.019531 C 145.714844 546.3125 146.300781 547.824219 146.300781 548.890625 C 146.300781 551.488281 144.976562 557.042969 144.917969 557.277344 C 144.769531 557.894531 144.21875 558.308594 143.609375 558.308594 " fill-opacity="1" fill-rule="nonzero"/></g><path fill="#544541" d="M 194.753906 505.839844 C 194.207031 505.839844 193.691406 505.507812 193.492188 504.96875 C 192.566406 502.503906 191.0625 499.613281 189.738281 497.070312 C 187.773438 493.285156 186.660156 491.078125 186.660156 489.695312 C 186.660156 486.578125 188.359375 484.3125 190.695312 484.3125 C 193.339844 484.3125 195.496094 487.640625 195.898438 488.308594 C 196.289062 488.945312 196.082031 489.769531 195.453125 490.15625 C 194.816406 490.546875 193.992188 490.339844 193.601562 489.710938 C 192.820312 488.429688 191.433594 487.003906 190.695312 487.003906 C 189.855469 487.003906 189.351562 488.371094 189.351562 489.695312 C 189.351562 490.488281 190.890625 493.449219 192.132812 495.824219 C 193.488281 498.441406 195.03125 501.402344 196.007812 504.019531 C 196.273438 504.71875 195.921875 505.492188 195.222656 505.753906 C 195.0625 505.8125 194.910156 505.839844 194.753906 505.839844 " fill-opacity="1" fill-rule="nonzero"/><path fill="#544541" d="M 165.113281 505.839844 C 164.960938 505.839844 164.796875 505.8125 164.644531 505.753906 C 163.945312 505.492188 163.59375 504.71875 163.859375 504.019531 C 164.835938 501.402344 166.378906 498.441406 167.742188 495.824219 C 168.976562 493.449219 170.515625 490.488281 170.515625 489.695312 C 170.515625 488.371094 170.011719 487.003906 169.171875 487.003906 C 168.363281 487.003906 166.9375 488.601562 166.265625 489.710938 C 165.882812 490.339844 165.054688 490.546875 164.421875 490.15625 C 163.785156 489.773438 163.578125 488.945312 163.96875 488.308594 C 164.371094 487.640625 166.527344 484.3125 169.171875 484.3125 C 171.507812 484.3125 173.207031 486.578125 173.207031 489.695312 C 173.207031 491.078125 172.09375 493.285156 170.128906 497.070312 C 168.804688 499.613281 167.300781 502.503906 166.375 504.96875 C 166.175781 505.507812 165.660156 505.839844 165.113281 505.839844 " fill-opacity="1" fill-rule="nonzero"/><g clip-path="url(#996bbfd6d8)"><path fill="#544541" d="M 604.785156 687.230469 L 604.382812 689.328125 C 604.351562 689.496094 604.40625 689.628906 604.546875 689.730469 C 604.679688 689.828125 604.824219 689.835938 604.972656 689.757812 L 606.859375 688.734375 L 608.734375 689.75 C 608.882812 689.828125 609.023438 689.820312 609.160156 689.722656 C 609.300781 689.621094 609.355469 689.488281 609.320312 689.320312 L 608.917969 687.222656 L 610.472656 685.761719 C 610.589844 685.648438 610.625 685.515625 610.578125 685.359375 C 610.527344 685.199219 610.417969 685.109375 610.25 685.085938 L 608.136719 684.808594 L 607.21875 682.867188 C 607.148438 682.71875 607.027344 682.640625 606.859375 682.640625 C 606.691406 682.640625 606.570312 682.71875 606.496094 682.867188 L 605.578125 684.796875 L 603.464844 685.074219 C 603.296875 685.097656 603.1875 685.1875 603.136719 685.347656 C 603.089844 685.5 603.125 685.636719 603.238281 685.75 Z M 605.898438 685.5625 C 606.042969 685.542969 606.144531 685.46875 606.207031 685.339844 L 606.859375 683.976562 L 607.511719 685.332031 C 607.574219 685.460938 607.675781 685.535156 607.820312 685.554688 L 609.3125 685.753906 L 608.222656 686.789062 C 608.113281 686.890625 608.074219 687.011719 608.101562 687.15625 L 608.378906 688.636719 L 607.050781 687.917969 C 606.917969 687.839844 606.785156 687.839844 606.648438 687.917969 L 605.324219 688.636719 L 605.601562 687.15625 C 605.628906 687.011719 605.585938 686.890625 605.480469 686.789062 L 604.386719 685.753906 Z M 605.898438 685.5625 " fill-opacity="1" fill-rule="nonzero"/></g><path fill="#544541" d="M 594.910156 691.484375 L 594.511719 693.582031 C 594.480469 693.75 594.53125 693.882812 594.667969 693.980469 C 594.804688 694.078125 594.949219 694.089844 595.097656 694.007812 L 596.96875 692.992188 L 598.84375 694.007812 C 598.992188 694.089844 599.136719 694.078125 599.273438 693.980469 C 599.410156 693.882812 599.460938 693.75 599.429688 693.582031 L 599.03125 691.484375 L 600.574219 690.019531 C 600.691406 689.90625 600.730469 689.773438 600.683594 689.617188 C 600.632812 689.457031 600.523438 689.367188 600.355469 689.34375 L 598.238281 689.066406 L 597.320312 687.140625 C 597.25 686.984375 597.128906 686.90625 596.957031 686.90625 C 596.789062 686.90625 596.667969 686.984375 596.59375 687.140625 L 595.679688 689.066406 L 593.601562 689.347656 C 593.433594 689.371094 593.324219 689.460938 593.273438 689.621094 C 593.226562 689.777344 593.261719 689.910156 593.378906 690.023438 Z M 596.011719 689.816406 C 596.15625 689.800781 596.257812 689.722656 596.320312 689.59375 L 596.96875 688.230469 L 597.621094 689.59375 C 597.683594 689.722656 597.785156 689.800781 597.929688 689.816406 L 599.425781 690.015625 L 598.34375 691.050781 C 598.238281 691.152344 598.199219 691.273438 598.226562 691.417969 L 598.5 692.898438 L 597.171875 692.179688 C 597.039062 692.101562 596.90625 692.101562 596.773438 692.179688 L 595.445312 692.898438 L 595.71875 691.417969 C 595.746094 691.273438 595.707031 691.152344 595.601562 691.050781 L 594.527344 690.015625 Z M 596.011719 689.816406 " fill-opacity="1" fill-rule="nonzero"/><path fill="#544541" d="M 614.664062 691.484375 L 614.261719 693.582031 C 614.230469 693.75 614.285156 693.882812 614.421875 693.984375 C 614.558594 694.082031 614.703125 694.09375 614.847656 694.011719 L 616.726562 692.996094 L 618.597656 694.011719 C 618.746094 694.09375 618.890625 694.085938 619.027344 693.984375 C 619.164062 693.882812 619.21875 693.75 619.183594 693.582031 L 618.78125 691.484375 L 620.332031 690.019531 C 620.449219 689.90625 620.484375 689.773438 620.4375 689.617188 C 620.386719 689.460938 620.277344 689.371094 620.117188 689.347656 L 618 689.070312 L 617.082031 687.144531 C 617.011719 686.988281 616.890625 686.910156 616.71875 686.910156 C 616.550781 686.910156 616.429688 686.988281 616.355469 687.144531 L 615.441406 689.070312 L 613.339844 689.347656 C 613.171875 689.371094 613.0625 689.460938 613.007812 689.621094 C 612.964844 689.777344 613 689.910156 613.117188 690.023438 Z M 615.777344 689.816406 C 615.921875 689.800781 616.023438 689.722656 616.085938 689.59375 L 616.738281 688.230469 L 617.382812 689.59375 C 617.445312 689.722656 617.550781 689.800781 617.695312 689.816406 L 619.191406 690.015625 L 618.109375 691.050781 C 618.003906 691.152344 617.964844 691.273438 617.992188 691.417969 L 618.265625 692.898438 L 616.9375 692.179688 C 616.804688 692.101562 616.671875 692.101562 616.535156 692.179688 L 615.210938 692.898438 L 615.484375 691.417969 C 615.511719 691.273438 615.472656 691.152344 615.367188 691.050781 L 614.269531 690.015625 Z M 615.777344 689.816406 " fill-opacity="1" fill-rule="nonzero"/><path fill="#544541" d="M 586.5625 698.503906 L 586.160156 700.601562 C 586.128906 700.769531 586.183594 700.902344 586.324219 701.003906 C 586.457031 701.101562 586.601562 701.109375 586.75 701.03125 L 588.625 700.011719 L 590.496094 701.03125 C 590.648438 701.125 590.796875 701.121094 590.941406 701.015625 C 591.089844 700.910156 591.140625 700.769531 591.097656 700.597656 L 590.699219 698.5 L 592.246094 697.035156 C 592.359375 696.921875 592.394531 696.785156 592.347656 696.632812 C 592.296875 696.46875 592.1875 696.378906 592.019531 696.355469 L 589.90625 696.078125 L 588.984375 694.152344 C 588.914062 694 588.792969 693.925781 588.625 693.925781 C 588.457031 693.925781 588.335938 694 588.261719 694.152344 L 587.34375 696.078125 L 585.230469 696.355469 C 585.0625 696.378906 584.953125 696.46875 584.902344 696.632812 C 584.855469 696.785156 584.890625 696.921875 585.003906 697.035156 Z M 587.675781 696.835938 C 587.820312 696.816406 587.921875 696.742188 587.984375 696.613281 L 588.636719 695.25 L 589.289062 696.613281 C 589.351562 696.742188 589.453125 696.816406 589.597656 696.835938 L 591.089844 697.035156 L 589.988281 698.074219 C 589.878906 698.171875 589.839844 698.296875 589.867188 698.4375 L 590.144531 699.921875 L 588.816406 699.203125 C 588.683594 699.125 588.550781 699.125 588.414062 699.203125 L 587.089844 699.921875 L 587.367188 698.4375 C 587.394531 698.296875 587.351562 698.171875 587.246094 698.074219 L 586.152344 697.035156 Z M 587.675781 696.835938 " fill-opacity="1" fill-rule="nonzero"/><path fill="#544541" d="M 623.007812 698.503906 L 622.605469 700.601562 C 622.574219 700.769531 622.625 700.902344 622.765625 701.003906 C 622.902344 701.105469 623.046875 701.113281 623.199219 701.03125 L 625.070312 700.011719 L 626.945312 701.03125 C 627.09375 701.109375 627.234375 701.101562 627.371094 701.003906 C 627.511719 700.902344 627.5625 700.769531 627.53125 700.601562 L 627.128906 698.503906 L 628.675781 697.039062 C 628.792969 696.925781 628.828125 696.789062 628.78125 696.636719 C 628.730469 696.472656 628.621094 696.382812 628.453125 696.359375 L 626.339844 696.082031 L 625.417969 694.15625 C 625.34375 694.003906 625.226562 693.929688 625.058594 693.929688 C 624.890625 693.929688 624.769531 694.003906 624.695312 694.15625 L 623.777344 696.082031 L 621.664062 696.359375 C 621.496094 696.382812 621.382812 696.472656 621.332031 696.636719 C 621.289062 696.789062 621.320312 696.925781 621.4375 697.039062 Z M 624.132812 696.835938 C 624.277344 696.816406 624.378906 696.742188 624.441406 696.613281 L 625.09375 695.25 L 625.742188 696.613281 C 625.804688 696.742188 625.90625 696.816406 626.050781 696.835938 L 627.542969 697.035156 L 626.453125 698.074219 C 626.34375 698.171875 626.304688 698.296875 626.332031 698.4375 L 626.609375 699.921875 L 625.28125 699.203125 C 625.148438 699.125 625.015625 699.125 624.878906 699.203125 L 623.554688 699.921875 L 623.832031 698.4375 C 623.859375 698.296875 623.816406 698.171875 623.710938 698.074219 L 622.617188 697.035156 Z M 624.132812 696.835938 " fill-opacity="1" fill-rule="nonzero"/><g clip-path="url(#2a20764c6a)"><path fill="#544541" d="M 628.433594 707.96875 L 617.304688 707.96875 L 617.304688 699.390625 C 617.304688 699.28125 617.265625 699.1875 617.1875 699.105469 C 617.109375 699.027344 617.011719 698.988281 616.902344 698.988281 L 614.539062 698.988281 L 614.539062 696.523438 C 614.539062 696.414062 614.5 696.316406 614.421875 696.238281 C 614.34375 696.160156 614.25 696.121094 614.136719 696.121094 L 599.578125 696.121094 C 599.46875 696.121094 599.375 696.160156 599.296875 696.238281 C 599.21875 696.316406 599.179688 696.414062 599.179688 696.523438 L 599.179688 698.988281 L 596.816406 698.988281 C 596.703125 698.988281 596.609375 699.027344 596.53125 699.105469 C 596.453125 699.1875 596.414062 699.28125 596.414062 699.390625 L 596.414062 707.988281 L 585.285156 707.988281 C 585.074219 707.988281 584.867188 708.027344 584.671875 708.109375 C 584.472656 708.191406 584.300781 708.308594 584.148438 708.460938 C 584 708.609375 583.882812 708.785156 583.800781 708.980469 C 583.71875 709.175781 583.679688 709.382812 583.679688 709.59375 L 583.679688 728.597656 C 583.679688 728.707031 583.71875 728.800781 583.796875 728.882812 C 583.875 728.960938 583.96875 729 584.082031 729 L 629.636719 729 C 629.746094 729 629.84375 728.960938 629.921875 728.882812 C 630 728.800781 630.039062 728.707031 630.039062 728.597656 L 630.039062 709.574219 C 630.039062 709.363281 629.996094 709.15625 629.917969 708.960938 C 629.835938 708.761719 629.71875 708.589844 629.566406 708.4375 C 629.417969 708.289062 629.242188 708.171875 629.046875 708.089844 C 628.851562 708.007812 628.644531 707.96875 628.433594 707.96875 Z M 599.980469 696.925781 L 613.738281 696.925781 L 613.738281 698.988281 L 599.980469 698.988281 Z M 584.484375 709.574219 C 584.484375 709.351562 584.5625 709.164062 584.71875 709.007812 C 584.875 708.851562 585.0625 708.773438 585.285156 708.773438 L 596.414062 708.773438 L 596.414062 728.195312 L 584.484375 728.195312 Z M 597.21875 699.792969 L 616.5 699.792969 L 616.5 728.195312 L 611.1875 728.195312 L 611.1875 723.734375 L 613.550781 723.734375 C 613.664062 723.734375 613.757812 723.695312 613.835938 723.617188 C 613.914062 723.539062 613.953125 723.445312 613.953125 723.335938 C 613.953125 723.222656 613.914062 723.128906 613.835938 723.050781 C 613.757812 722.972656 613.664062 722.933594 613.550781 722.933594 L 600.167969 722.933594 C 600.054688 722.933594 599.960938 722.972656 599.882812 723.050781 C 599.804688 723.128906 599.765625 723.222656 599.765625 723.335938 C 599.765625 723.445312 599.804688 723.539062 599.882812 723.617188 C 599.960938 723.695312 600.054688 723.734375 600.167969 723.734375 L 602.578125 723.734375 L 602.578125 728.195312 L 597.21875 728.195312 Z M 603.386719 723.734375 L 606.457031 723.734375 L 606.457031 728.195312 L 603.386719 728.195312 Z M 607.261719 728.195312 L 607.261719 723.734375 L 610.382812 723.734375 L 610.382812 728.195312 Z M 629.234375 728.195312 L 617.304688 728.195312 L 617.304688 708.773438 L 628.433594 708.773438 C 628.652344 708.773438 628.84375 708.851562 629 709.007812 C 629.15625 709.164062 629.234375 709.351562 629.234375 709.574219 Z M 629.234375 728.195312 " fill-opacity="1" fill-rule="nonzero"/></g><path fill="#544541" d="M 601.511719 707.023438 L 605.6875 707.023438 C 605.796875 707.023438 605.890625 706.984375 605.96875 706.90625 C 606.046875 706.828125 606.085938 706.734375 606.085938 706.621094 L 606.085938 702.4375 C 606.085938 702.324219 606.046875 702.230469 605.96875 702.152344 C 605.890625 702.074219 605.796875 702.035156 605.6875 702.035156 L 601.511719 702.035156 C 601.402344 702.035156 601.304688 702.074219 601.226562 702.152344 C 601.148438 702.230469 601.109375 702.324219 601.109375 702.4375 L 601.109375 706.621094 C 601.109375 706.734375 601.148438 706.828125 601.226562 706.90625 C 601.304688 706.984375 601.402344 707.023438 601.511719 707.023438 Z M 601.914062 702.851562 L 605.285156 702.851562 L 605.285156 706.222656 L 601.914062 706.222656 Z M 601.914062 702.851562 " fill-opacity="1" fill-rule="nonzero"/><path fill="#544541" d="M 601.511719 713.824219 L 605.6875 713.824219 C 605.796875 713.824219 605.890625 713.785156 605.96875 713.707031 C 606.046875 713.628906 606.085938 713.535156 606.085938 713.421875 L 606.085938 709.25 C 606.085938 709.140625 606.046875 709.042969 605.96875 708.964844 C 605.890625 708.886719 605.796875 708.847656 605.6875 708.847656 L 601.511719 708.847656 C 601.402344 708.847656 601.304688 708.886719 601.226562 708.964844 C 601.148438 709.042969 601.109375 709.140625 601.109375 709.25 L 601.109375 713.421875 C 601.109375 713.535156 601.148438 713.628906 601.226562 713.707031 C 601.304688 713.785156 601.402344 713.824219 601.511719 713.824219 Z M 601.914062 709.652344 L 605.285156 709.652344 L 605.285156 713.023438 L 601.914062 713.023438 Z M 601.914062 709.652344 " fill-opacity="1" fill-rule="nonzero"/><path fill="#544541" d="M 601.511719 720.640625 L 605.6875 720.640625 C 605.796875 720.640625 605.890625 720.597656 605.96875 720.519531 C 606.046875 720.441406 606.085938 720.347656 606.085938 720.238281 L 606.085938 716.0625 C 606.085938 715.953125 606.046875 715.859375 605.96875 715.777344 C 605.890625 715.699219 605.796875 715.660156 605.6875 715.660156 L 601.511719 715.660156 C 601.402344 715.660156 601.304688 715.699219 601.226562 715.777344 C 601.148438 715.859375 601.109375 715.953125 601.109375 716.0625 L 601.109375 720.238281 C 601.109375 720.347656 601.148438 720.441406 601.226562 720.519531 C 601.304688 720.597656 601.402344 720.640625 601.511719 720.640625 Z M 601.914062 716.464844 L 605.285156 716.464844 L 605.285156 719.835938 L 601.914062 719.835938 Z M 601.914062 716.464844 " fill-opacity="1" fill-rule="nonzero"/><path fill="#544541" d="M 608.03125 707.023438 L 612.207031 707.023438 C 612.316406 707.023438 612.410156 706.984375 612.488281 706.90625 C 612.570312 706.828125 612.609375 706.734375 612.609375 706.621094 L 612.609375 702.4375 C 612.609375 702.324219 612.570312 702.230469 612.488281 702.152344 C 612.410156 702.074219 612.316406 702.035156 612.207031 702.035156 L 608.03125 702.035156 C 607.921875 702.035156 607.828125 702.074219 607.746094 702.152344 C 607.667969 702.230469 607.628906 702.324219 607.628906 702.4375 L 607.628906 706.621094 C 607.628906 706.734375 607.667969 706.828125 607.746094 706.90625 C 607.828125 706.984375 607.921875 707.023438 608.03125 707.023438 Z M 608.433594 702.851562 L 611.804688 702.851562 L 611.804688 706.222656 L 608.433594 706.222656 Z M 608.433594 702.851562 " fill-opacity="1" fill-rule="nonzero"/><path fill="#544541" d="M 608.03125 713.824219 L 612.207031 713.824219 C 612.316406 713.824219 612.410156 713.785156 612.488281 713.707031 C 612.570312 713.628906 612.609375 713.535156 612.609375 713.421875 L 612.609375 709.25 C 612.609375 709.140625 612.570312 709.042969 612.488281 708.964844 C 612.410156 708.886719 612.316406 708.847656 612.207031 708.847656 L 608.03125 708.847656 C 607.921875 708.847656 607.828125 708.886719 607.746094 708.964844 C 607.667969 709.042969 607.628906 709.140625 607.628906 709.25 L 607.628906 713.421875 C 607.628906 713.535156 607.667969 713.628906 607.746094 713.707031 C 607.828125 713.785156 607.921875 713.824219 608.03125 713.824219 Z M 608.433594 709.652344 L 611.804688 709.652344 L 611.804688 713.023438 L 608.433594 713.023438 Z M 608.433594 709.652344 " fill-opacity="1" fill-rule="nonzero"/><path fill="#544541" d="M 608.03125 720.640625 L 612.207031 720.640625 C 612.316406 720.640625 612.410156 720.597656 612.488281 720.519531 C 612.570312 720.441406 612.609375 720.347656 612.609375 720.238281 L 612.609375 716.0625 C 612.609375 715.953125 612.570312 715.859375 612.488281 715.777344 C 612.410156 715.699219 612.316406 715.660156 612.207031 715.660156 L 608.03125 715.660156 C 607.921875 715.660156 607.828125 715.699219 607.746094 715.777344 C 607.667969 715.859375 607.628906 715.953125 607.628906 716.0625 L 607.628906 720.238281 C 607.628906 720.347656 607.667969 720.441406 607.746094 720.519531 C 607.828125 720.597656 607.921875 720.640625 608.03125 720.640625 Z M 608.433594 716.464844 L 611.804688 716.464844 L 611.804688 719.835938 L 608.433594 719.835938 Z M 608.433594 716.464844 " fill-opacity="1" fill-rule="nonzero"/><path fill="#544541" d="M 589.425781 710.9375 L 586.316406 710.9375 C 586.203125 710.9375 586.109375 710.976562 586.03125 711.054688 C 585.953125 711.132812 585.914062 711.226562 585.914062 711.339844 L 585.914062 714.445312 C 585.914062 714.554688 585.953125 714.648438 586.03125 714.726562 C 586.109375 714.808594 586.203125 714.847656 586.316406 714.847656 L 589.425781 714.847656 C 589.535156 714.847656 589.628906 714.808594 589.707031 714.726562 C 589.785156 714.648438 589.824219 714.554688 589.824219 714.445312 L 589.824219 711.339844 C 589.824219 711.226562 589.785156 711.132812 589.707031 711.054688 C 589.628906 710.976562 589.535156 710.9375 589.425781 710.9375 Z M 589.023438 714.042969 L 586.714844 714.042969 L 586.714844 711.742188 L 589.023438 711.742188 Z M 589.023438 714.042969 " fill-opacity="1" fill-rule="nonzero"/><path fill="#544541" d="M 594.582031 710.9375 L 591.476562 710.9375 C 591.367188 710.9375 591.269531 710.976562 591.191406 711.054688 C 591.113281 711.132812 591.074219 711.226562 591.074219 711.339844 L 591.074219 714.445312 C 591.074219 714.554688 591.113281 714.648438 591.191406 714.726562 C 591.269531 714.808594 591.367188 714.847656 591.476562 714.847656 L 594.582031 714.847656 C 594.691406 714.847656 594.789062 714.808594 594.867188 714.726562 C 594.945312 714.648438 594.984375 714.554688 594.984375 714.445312 L 594.984375 711.339844 C 594.984375 711.226562 594.945312 711.132812 594.867188 711.054688 C 594.789062 710.976562 594.691406 710.9375 594.582031 710.9375 Z M 594.179688 714.042969 L 591.878906 714.042969 L 591.878906 711.742188 L 594.179688 711.742188 Z M 594.179688 714.042969 " fill-opacity="1" fill-rule="nonzero"/><path fill="#544541" d="M 589.425781 716.527344 L 586.316406 716.527344 C 586.203125 716.527344 586.109375 716.566406 586.03125 716.648438 C 585.953125 716.726562 585.914062 716.820312 585.914062 716.929688 L 585.914062 720.035156 C 585.914062 720.148438 585.953125 720.242188 586.03125 720.320312 C 586.109375 720.398438 586.203125 720.4375 586.316406 720.4375 L 589.425781 720.4375 C 589.535156 720.4375 589.628906 720.398438 589.707031 720.320312 C 589.785156 720.242188 589.824219 720.148438 589.824219 720.035156 L 589.824219 716.929688 C 589.824219 716.820312 589.785156 716.726562 589.707031 716.648438 C 589.628906 716.566406 589.535156 716.527344 589.425781 716.527344 Z M 589.023438 719.632812 L 586.714844 719.632812 L 586.714844 717.332031 L 589.023438 717.332031 Z M 589.023438 719.632812 " fill-opacity="1" fill-rule="nonzero"/><path fill="#544541" d="M 594.582031 716.527344 L 591.476562 716.527344 C 591.367188 716.527344 591.269531 716.566406 591.191406 716.648438 C 591.113281 716.726562 591.074219 716.820312 591.074219 716.929688 L 591.074219 720.035156 C 591.074219 720.148438 591.113281 720.242188 591.191406 720.320312 C 591.269531 720.398438 591.367188 720.4375 591.476562 720.4375 L 594.582031 720.4375 C 594.691406 720.4375 594.789062 720.398438 594.867188 720.320312 C 594.945312 720.242188 594.984375 720.148438 594.984375 720.035156 L 594.984375 716.929688 C 594.984375 716.820312 594.945312 716.726562 594.867188 716.648438 C 594.789062 716.566406 594.691406 716.527344 594.582031 716.527344 Z M 594.179688 719.632812 L 591.878906 719.632812 L 591.878906 717.332031 L 594.179688 717.332031 Z M 594.179688 719.632812 " fill-opacity="1" fill-rule="nonzero"/><path fill="#544541" d="M 589.425781 722.117188 L 586.316406 722.117188 C 586.203125 722.117188 586.109375 722.15625 586.03125 722.234375 C 585.953125 722.3125 585.914062 722.40625 585.914062 722.519531 L 585.914062 725.628906 C 585.914062 725.738281 585.953125 725.832031 586.03125 725.914062 C 586.109375 725.992188 586.203125 726.03125 586.316406 726.03125 L 589.425781 726.03125 C 589.535156 726.03125 589.628906 725.992188 589.707031 725.914062 C 589.785156 725.832031 589.824219 725.738281 589.824219 725.628906 L 589.824219 722.519531 C 589.824219 722.40625 589.785156 722.3125 589.707031 722.234375 C 589.628906 722.15625 589.535156 722.117188 589.425781 722.117188 Z M 589.023438 725.226562 L 586.714844 725.226562 L 586.714844 722.921875 L 589.023438 722.921875 Z M 589.023438 725.226562 " fill-opacity="1" fill-rule="nonzero"/><path fill="#544541" d="M 594.582031 722.117188 L 591.476562 722.117188 C 591.367188 722.117188 591.269531 722.15625 591.191406 722.234375 C 591.113281 722.3125 591.074219 722.40625 591.074219 722.519531 L 591.074219 725.628906 C 591.074219 725.738281 591.113281 725.832031 591.191406 725.914062 C 591.269531 725.992188 591.367188 726.03125 591.476562 726.03125 L 594.582031 726.03125 C 594.691406 726.03125 594.789062 725.992188 594.867188 725.914062 C 594.945312 725.832031 594.984375 725.738281 594.984375 725.628906 L 594.984375 722.519531 C 594.984375 722.40625 594.945312 722.3125 594.867188 722.234375 C 594.789062 722.15625 594.691406 722.117188 594.582031 722.117188 Z M 594.179688 725.226562 L 591.878906 725.226562 L 591.878906 722.921875 L 594.179688 722.921875 Z M 594.179688 725.226562 " fill-opacity="1" fill-rule="nonzero"/><path fill="#544541" d="M 622.242188 710.9375 L 619.136719 710.9375 C 619.023438 710.9375 618.929688 710.976562 618.851562 711.054688 C 618.773438 711.132812 618.734375 711.226562 618.734375 711.339844 L 618.734375 714.445312 C 618.734375 714.554688 618.773438 714.648438 618.851562 714.726562 C 618.929688 714.808594 619.023438 714.847656 619.136719 714.847656 L 622.242188 714.847656 C 622.351562 714.847656 622.445312 714.808594 622.523438 714.726562 C 622.605469 714.648438 622.644531 714.554688 622.644531 714.445312 L 622.644531 711.339844 C 622.644531 711.226562 622.605469 711.132812 622.523438 711.054688 C 622.445312 710.976562 622.351562 710.9375 622.242188 710.9375 Z M 621.839844 714.042969 L 619.539062 714.042969 L 619.539062 711.742188 L 621.839844 711.742188 Z M 621.839844 714.042969 " fill-opacity="1" fill-rule="nonzero"/><path fill="#544541" d="M 627.402344 710.9375 L 624.292969 710.9375 C 624.183594 710.9375 624.089844 710.976562 624.011719 711.054688 C 623.929688 711.132812 623.890625 711.226562 623.890625 711.339844 L 623.890625 714.445312 C 623.890625 714.554688 623.929688 714.648438 624.011719 714.726562 C 624.089844 714.808594 624.183594 714.847656 624.292969 714.847656 L 627.402344 714.847656 C 627.515625 714.847656 627.609375 714.808594 627.6875 714.726562 C 627.765625 714.648438 627.804688 714.554688 627.804688 714.445312 L 627.804688 711.339844 C 627.804688 711.226562 627.765625 711.132812 627.6875 711.054688 C 627.609375 710.976562 627.515625 710.9375 627.402344 710.9375 Z M 627 714.042969 L 624.695312 714.042969 L 624.695312 711.742188 L 627 711.742188 Z M 627 714.042969 " fill-opacity="1" fill-rule="nonzero"/><path fill="#544541" d="M 622.242188 716.527344 L 619.136719 716.527344 C 619.023438 716.527344 618.929688 716.566406 618.851562 716.648438 C 618.773438 716.726562 618.734375 716.820312 618.734375 716.929688 L 618.734375 720.035156 C 618.734375 720.148438 618.773438 720.242188 618.851562 720.320312 C 618.929688 720.398438 619.023438 720.4375 619.136719 720.4375 L 622.242188 720.4375 C 622.351562 720.4375 622.445312 720.398438 622.523438 720.320312 C 622.605469 720.242188 622.644531 720.148438 622.644531 720.035156 L 622.644531 716.929688 C 622.644531 716.820312 622.605469 716.726562 622.523438 716.648438 C 622.445312 716.566406 622.351562 716.527344 622.242188 716.527344 Z M 621.839844 719.632812 L 619.539062 719.632812 L 619.539062 717.332031 L 621.839844 717.332031 Z M 621.839844 719.632812 " fill-opacity="1" fill-rule="nonzero"/><path fill="#544541" d="M 627.402344 716.527344 L 624.292969 716.527344 C 624.183594 716.527344 624.089844 716.566406 624.011719 716.648438 C 623.929688 716.726562 623.890625 716.820312 623.890625 716.929688 L 623.890625 720.035156 C 623.890625 720.148438 623.929688 720.242188 624.011719 720.320312 C 624.089844 720.398438 624.183594 720.4375 624.292969 720.4375 L 627.402344 720.4375 C 627.515625 720.4375 627.609375 720.398438 627.6875 720.320312 C 627.765625 720.242188 627.804688 720.148438 627.804688 720.035156 L 627.804688 716.929688 C 627.804688 716.820312 627.765625 716.726562 627.6875 716.648438 C 627.609375 716.566406 627.515625 716.527344 627.402344 716.527344 Z M 627 719.632812 L 624.695312 719.632812 L 624.695312 717.332031 L 627 717.332031 Z M 627 719.632812 " fill-opacity="1" fill-rule="nonzero"/><path fill="#544541" d="M 622.242188 722.117188 L 619.136719 722.117188 C 619.023438 722.117188 618.929688 722.15625 618.851562 722.234375 C 618.773438 722.3125 618.734375 722.40625 618.734375 722.519531 L 618.734375 725.628906 C 618.734375 725.738281 618.773438 725.832031 618.851562 725.914062 C 618.929688 725.992188 619.023438 726.03125 619.136719 726.03125 L 622.242188 726.03125 C 622.351562 726.03125 622.445312 725.992188 622.523438 725.914062 C 622.605469 725.832031 622.644531 725.738281 622.644531 725.628906 L 622.644531 722.519531 C 622.644531 722.40625 622.605469 722.3125 622.523438 722.234375 C 622.445312 722.15625 622.351562 722.117188 622.242188 722.117188 Z M 621.839844 725.226562 L 619.539062 725.226562 L 619.539062 722.921875 L 621.839844 722.921875 Z M 621.839844 725.226562 " fill-opacity="1" fill-rule="nonzero"/><path fill="#544541" d="M 627.402344 722.117188 L 624.292969 722.117188 C 624.183594 722.117188 624.089844 722.15625 624.011719 722.234375 C 623.929688 722.3125 623.890625 722.40625 623.890625 722.519531 L 623.890625 725.628906 C 623.890625 725.738281 623.929688 725.832031 624.011719 725.914062 C 624.089844 725.992188 624.183594 726.03125 624.292969 726.03125 L 627.402344 726.03125 C 627.515625 726.03125 627.609375 725.992188 627.6875 725.914062 C 627.765625 725.832031 627.804688 725.738281 627.804688 725.628906 L 627.804688 722.519531 C 627.804688 722.40625 627.765625 722.3125 627.6875 722.234375 C 627.609375 722.15625 627.515625 722.117188 627.402344 722.117188 Z M 627 725.226562 L 624.695312 725.226562 L 624.695312 722.921875 L 627 722.921875 Z M 627 725.226562 " fill-opacity="1" fill-rule="nonzero"/></svg>